<?xml version="1.0" encoding="utf-8"?>
<svg version="1.1" id="layer1" xmlns="http://www.w3.org/2000/svg" xmlns:xlink="http://www.w3.org/1999/xlink" x="0px" y="0px"
	 viewBox="0 0 1010 1010" style="enable-background:new 0 0 1010 1010;" xml:space="preserve">
<path d="M1006,550.9c1.3-14.9,2-30,2-45.2c0-15.2-0.7-30.3-2-45.2l-121.6-34.9c-2.8-13.3-6.4-26.5-10.6-39.8
	c-4.3-13.2-9.2-26-14.8-38.4l77.9-99.6c-7.7-12.8-16-25.4-25-37.8c-9-12.3-18.4-24.1-28.2-35.4l-118.8,43.2
	c-20.5-18.5-42.8-34.6-66.5-48.3l4.4-126.4c-13.8-5.9-27.9-11.2-42.4-15.9s-29.1-8.7-43.6-12.1L546.1,120c-27-2.9-54.6-3-82.3,0
	L393.2,15.2c-14.6,3.3-29.1,7.4-43.6,12.1s-28.6,10-42.4,15.9l4.4,126.3c-3.9,2.2-7.7,4.6-11.5,6.9l114.3,114.3
	c9.2-4,19.3-6.2,29.9-6.2c41.6,0,75.3,33.7,75.3,75.3c0,10.6-2.2,20.7-6.2,29.9l80.6,80.6c9.2-4,19.3-6.2,29.9-6.2
	c41.6,0,75.3,33.7,75.3,75.3c0,41.6-33.7,75.3-75.3,75.3c-41.6,0-75.3-33.7-75.3-75.3c0-10.6,2.2-20.7,6.2-29.9L474.2,429
	c-0.7,0.3-1.4,0.6-2.1,0.9v219.3c27.9,11,47.6,38.2,47.6,70c0,41.6-33.7,75.3-75.3,75.3c-41.6,0-75.3-33.7-75.3-75.3
	c0-31.8,19.7-59,47.6-70V429.9c-27.9-11-47.6-38.2-47.6-70c0-10.6,2.2-20.7,6.2-29.9L254.6,209.5c-3.2,2.7-6.5,5.5-9.6,8.4
	l-118.8-43.2c-9.8,11.3-19.2,23.1-28.2,35.4c-9,12.3-17.3,24.9-25,37.8l77.9,99.7c-11.2,25-19.7,51.2-25.5,78.2L4,460.5
	c-1.3,14.9-2,30-2,45.2c0,15.2,0.7,30.3,2,45.2l121.6,34.9c2.8,13.3,6.4,26.5,10.6,39.8c4.3,13.2,9.2,26,14.8,38.4l-77.9,99.6
	c7.7,12.8,16,25.4,25,37.8s18.4,24.1,28.2,35.4l118.8-43.2c20.5,18.5,42.8,34.6,66.5,48.3l-4.4,126.4c13.8,5.9,27.9,11.2,42.4,15.9
	c14.5,4.7,29.1,8.7,43.6,12.1l70.7-104.8c27,2.9,54.6,3,82.3,0l70.7,104.8c14.6-3.3,29.1-7.4,43.6-12.1s28.6-10,42.4-15.9
	l-4.4-126.3c24.1-13.9,46.4-30.1,66.6-48.3l118.8,43.2c9.8-11.3,19.2-23.1,28.2-35.4c9-12.3,17.3-24.9,25-37.8L859,663.9
	c11.2-25,19.7-51.2,25.5-78.2L1006,550.9z"/>
</svg>
